<svg width="1200" height="316" viewBox="0 0 1200 316" fill="none" xmlns="http://www.w3.org/2000/svg">
<path fill-rule="evenodd" clip-rule="evenodd" d="M0 99.8012L17 111.801C33 123.801 67 147.801 100 147.801C133 147.801 167 123.801 200 129.801C233 135.801 267 171.801 300 153.801C333 135.801 367 63.8012 400 27.8012C433 -8.19879 467 -8.19879 500 21.8012C533 51.8012 567 111.801 600 147.801C633 183.801 667 195.801 700 183.801C733 171.801 767 135.801 800 135.801C833 135.801 867 171.801 900 159.801C933 147.801 967 87.8012 1000 93.8012C1033 99.8012 1067 171.801 1100 177.801C1133 183.801 1167 123.801 1183 93.8012L1200 63.8012V315.801H1183C1167 315.801 1133 315.801 1100 315.801C1067 315.801 1033 315.801 1000 315.801C967 315.801 933 315.801 900 315.801C867 315.801 833 315.801 800 315.801C767 315.801 733 315.801 700 315.801C667 315.801 633 315.801 600 315.801C567 315.801 533 315.801 500 315.801C467 315.801 433 315.801 400 315.801C367 315.801 333 315.801 300 315.801C267 315.801 233 315.801 200 315.801C167 315.801 133 315.801 100 315.801C67 315.801 33 315.801 17 315.801H0V99.8012Z" fill="url(#paint0_linear_1_2)"/>
<defs>
<linearGradient id="paint0_linear_1_2" x1="600" y1="-6.11521e-06" x2="654" y2="316" gradientUnits="userSpaceOnUse">
<stop stop-color="#FD9F00"/>
<stop offset="1" stop-color="#FFF085"/>
</linearGradient>
</defs>
</svg>
